inDegrees=no
num_controls=7
num_derivatives=13
num_iterations=173
num_multipliers=7
num_parameters=0
num_slacks=7
num_states=26
objective=6.346744
objective_accelerations=0.557343
objective_balance=0.080197
objective_effort=0.500752
objective_height=5.184097
objective_ligament=0.024355
solver_duration=1484.390161
status=Solve_Succeeded
success=true
DataType=double
version=3
OpenSimVersion=4.4-2022-07-23-0e9fedc
endheader
time	/jointset/ground_pelvis/pelvis_tilt/value	/jointset/ground_pelvis/pelvis_tx/value	/jointset/ground_pelvis/pelvis_ty/value	/jointset/hip_r/hip_flexion_r/value	/jointset/hip_r/hip_adduction_r/value	/jointset/hip_r/hip_rotation_r/value	/jointset/back/lumbar_extension/value	/jointset/patellofemoral_r/patellar_flexion_r/value	/jointset/knee_r/knee_flexion_r/value	/jointset/knee_r/knee_adduction_r/value	/jointset/knee_r/knee_rotation_r/value	/jointset/ankle_r/ankle_angle_r/value	/jointset/subtalar_r/subtalar_angle_r/value	/jointset/ground_pelvis/pelvis_tilt/speed	/jointset/ground_pelvis/pelvis_tx/speed	/jointset/ground_pelvis/pelvis_ty/speed	/jointset/hip_r/hip_flexion_r/speed	/jointset/hip_r/hip_adduction_r/speed	/jointset/hip_r/hip_rotation_r/speed	/jointset/back/lumbar_extension/speed	/jointset/patellofemoral_r/patellar_flexion_r/speed	/jointset/knee_r/knee_flexion_r/speed	/jointset/knee_r/knee_adduction_r/speed	/jointset/knee_r/knee_rotation_r/speed	/jointset/ankle_r/ankle_angle_r/speed	/jointset/subtalar_r/subtalar_angle_r/speed	/forceset/tau_hip_flexion_r	/forceset/tau_hip_adduction_r	/forceset/tau_hip_rotation_r	/forceset/tau_knee_flexion_r	/forceset/tau_ankle_angle_r	/forceset/tau_subtalar_angle_r	/forceset/tau_lumbar_extension	lambda_cid13_p0	lambda_cid14_p0	lambda_cid14_p1	lambda_cid14_p2	lambda_cid14_p3	lambda_cid14_p4	lambda_cid14_p5	/jointset/ground_pelvis/pelvis_tilt/accel	/jointset/ground_pelvis/pelvis_tx/accel	/jointset/ground_pelvis/pelvis_ty/accel	/jointset/hip_r/hip_flexion_r/accel	/jointset/hip_r/hip_adduction_r/accel	/jointset/hip_r/hip_rotation_r/accel	/jointset/back/lumbar_extension/accel	/jointset/patellofemoral_r/patellar_flexion_r/accel	/jointset/knee_r/knee_flexion_r/accel	/jointset/knee_r/knee_adduction_r/accel	/jointset/knee_r/knee_rotation_r/accel	/jointset/ankle_r/ankle_angle_r/accel	/jointset/subtalar_r/subtalar_angle_r/accel	gamma_cid13_p0	gamma_cid14_p0	gamma_cid14_p1	gamma_cid14_p2	gamma_cid14_p3	gamma_cid14_p4	gamma_cid14_p5
1	-0.2898731595864856	0.0111459257818028	0.6873332293820695	1.368570183185151	-0.2472076312159888	0.01272022053105773	-0.4363144640998692	1.321001475846372	1.321001475846564	0.02457407827939915	0.17453215188856	0.43631791397086	0.08321754532768164	0.0005760189823213302	0.004372480710297257	0.01492607624474892	-0.04159187538493538	0.0003081052682636385	-0.01316359838470039	0.002405931472828517	-0.04705751788215769	-0.04705751788215622	-0.0009673505167365448	-2.950776418811363e-05	-0.007758025313916585	-0.001918543846589274	-0.2755433180407837	0.01419905783467687	0.01856674710312055	-0.4730445549411739	-0.02553910264050698	0.006711614882917184	0.2958513467872955	-0.04503033798630892	-56.56249300319807	-6.592315014484988	1.058049903777256	15.12775806570379	-795.6985795170558	62.42075392791139	1.375965511780505	0.1634561622791627	1.640565320386693	-5.289671780136722	-0.01487094385949424	-1.000811673795581	0.2069352136066336	-4.946594005516872	-4.946594005516902	0.3532053833028805	0.01031590193458597	-1.257177997084503	-0.4480320250994607	8.378664465166315e-10	-3.177225163381913e-09	1.171746819836404e-08	6.903092883883027e-09	6.58360811964086e-09	-5.071645588364061e-09	1.098080329281177e-08
1.01	-0.2897998753650708	0.01119780416780667	0.6875643512695631	1.3678912306497	-0.2472051588758873	0.01253923284043272	-0.4362778366626361	1.320283580967751	1.320283580967947	0.02458250851915682	0.1745318827131823	0.4361773367881715	0.08317612756321802	0.01402777249901473	0.006005095674121821	0.0312959772727741	-0.09415522292041009	0.0001871048267147473	-0.02303625470408952	0.005058905741993657	-0.09654747976851102	-0.09654747976850894	0.002658157979330815	-2.309686570756276e-05	-0.02037531881083099	-0.006369076583944434	-0.2765160835919857	0.01451560094534225	0.01856767892253646	-0.4720434417101836	-0.0270328114565802	0.006843903425591014	0.2967349183220087	-0.04504472541709213	-57.0605630801698	-6.616843822153485	1.055990240195477	15.45587389236621	-796.1066154225454	62.31603669252616	1.321822843355164	0.1634494641644376	1.634852173697585	-5.233154621302242	-0.01060064751148105	-0.9808406910784113	0.3153809988138115	-4.954100869011419	-4.954100869011266	0.3679400991070412	-0.004007554418361734	-1.266692485150213	-0.4441679829094639	1.493437790686808e-09	-1.617411478156035e-09	2.854289620121691e-08	1.223690360454313e-08	2.161091488289806e-09	-8.579922618223181e-09	3.060963185781419e-08
1.02	-0.2895936650941449	0.01126606576359515	0.6879591021032754	1.366687946962681	-0.2472038737508443	0.01225944897059131	-0.4362104989896565	1.319070005752502	1.319070005752713	0.02462733714705596	0.1745317153992204	0.4359100491786816	0.08309008365440902	0.02716122888537247	0.007649122667220909	0.04765186548831157	-0.1464581056978473	7.06622568267989e-05	-0.03292283422620441	0.008547978620858016	-0.1461935852075331	-0.1461935852075303	0.006312327129347204	-9.135496155784182e-06	-0.03310011067395598	-0.01084377271553762	-0.2774888491431926	0.01483214405596469	0.01856861074254509	-0.471042328479188	-0.02852652027267036	0.006976191968173433	0.2976184898567167	-0.04506290691614159	-57.56876190545181	-6.641534144314774	1.05211515154027	15.79606726989284	-796.6819845195912	62.21942459534941	1.312306085713444	0.1657385681340319	1.637762757889131	-5.237578828529198	-0.01395936952728872	-1.003596314340733	0.3741549355465262	-4.977822716050567	-4.977822716050583	0.3589375140926417	0.01182599614879739	-1.278677670326653	-0.4528647039470416	1.831154969981858e-09	-1.380212904329203e-09	4.097028537638117e-08	1.794754051701941e-08	7.888968045760352e-10	-1.073913603062178e-08	4.256085628409431e-08
1.03	-0.2892576276223766	0.01135088158997814	0.6885172712833807	1.364962944836281	-0.2472037125635141	0.01188078400796197	-0.4361041640942528	1.317359353292705	1.317359353292736	0.02470883688048254	0.1745316912366783	0.4355150644389519	0.08295924537879705	0.03999838671927718	0.009321587908619658	0.06397225477630548	-0.1984947026308145	-3.617050300250339e-05	-0.04280599637352629	0.01285494754672958	-0.1959466921612988	-0.1959466921612994	0.009992524630841437	2.321599890275249e-06	-0.04590643429444673	-0.0153212539251024	-0.2780293650198686	0.01503072298695037	0.01859141825279737	-0.469925901577236	-0.02948347970356188	0.007076488832597106	0.2981854598235112	-0.04508050764326346	-57.87397069416557	-6.639654232707657	1.038381710965824	15.9422158819165	-796.7838082235306	62.1461158024136	1.262239475410996	0.1691321784303463	1.627717060805813	-5.17955718015292	-0.008701898132522846	-0.9800535542543362	0.4793599342311896	-4.975522931429665	-4.975522931430074	0.3733016522674837	-0.00448371449611465	-1.283051468073962	-0.4447841879611994	2.165628739431241e-09	-1.156510403067675e-09	5.335279660432409e-08	2.36620225947183e-08	-5.521721449781543e-10	-1.288458348774017e-08	5.443373781099967e-08
